# xmcd CD database file
#
# Track frame offsets:
#	150
#	8555
#	26352
#	43455
#	61245
#	80432
#	85467
#	105152
#	119992
#	139695
#	158652
#	160922
#	179250
#	202940
#	211820
#	227659
#	244845
#
# Disc length: 3518 seconds
#
# Revision: 3
# Processed by: cddbd v1.5.1PL0 Copyright (c) Steve Scherf et al.
# Submitted via: CDex 1.51
#
DISCID=d80dbc11
DTITLE=Will Smith - Big Willie Style
DYEAR=1998
DGENRE=Pop
TTITLE0=Intro
TTITLE1=Y'All Know
TTITLE2=Gettin' Jiggy Wit It
TTITLE3=Candy
TTITLE4=Chasing Forever
TTITLE5=Keith B-Real I (Interlude)
TTITLE6=Don't Say Nothin'
TTITLE7=Miami
TTITLE8=Yes Yes Y'All (Featuring Camp Lo)
TTITLE9=I Loved You
TTITLE10=Keith B-Real II (Interlude)
TTITLE11=It's All Good
TTITLE12=Just The Two Of Us
TTITLE13=Keith B-Real III (Interlude)
TTITLE14=Big Willie Style (Featuring Left Eye)
TTITLE15=Men In Black
TTITLE16=Just The Two Of Us (Featuring DLG)
EXTD=YEAR: 1998
EXTT0=
EXTT1=
EXTT2=
EXTT3=
EXTT4=
EXTT5=
EXTT6=
EXTT7=
EXTT8=
EXTT9=
EXTT10=
EXTT11=
EXTT12=
EXTT13=
EXTT14=
EXTT15=
EXTT16=
PLAYORDER=
